# xmcd CD database file
#
# Track frame offsets:
#	150
#	14762
#	28682
#	42422
#	65247
#	83488
#	98207
#	114785
#	131160
#	150270
#	165006
#	194713
#	239611
#
# Disc length: 3324 seconds
#
# Revision: 4
# Processed by: cddbd v1.5.2PL0 Copyright (c) Steve Scherf et al.
# Submitted via: CDex 1.81
#
DISCID=a60cfa0d
DTITLE=Sons of the Opeongo [CDN-OVN-04-White Tails, White Lies-cty) - White Tails, White Lies
DYEAR=2004
DGENRE=Country
TTITLE0=The Poker Game
TTITLE1=Pickled Eggs
TTITLE2=Buck Fever
TTITLE3=Annabelle and Eddie
TTITLE4=Jinxed (Deer Sighted)
TTITLE5=One Man Gang
TTITLE6=I've Hunted Everywhere
TTITLE7=Excuses
TTITLE8=Deer Track Soup
TTITLE9=The Target Shoot
TTITLE10=Jack Light
TTITLE11=The Great White Buck
TTITLE12=The Rut
EXTD=YEAR: 2004
EXTT0=
EXTT1=
EXTT2=
EXTT3=
EXTT4=
EXTT5=
EXTT6=
EXTT7=
EXTT8=
EXTT9=
EXTT10=
EXTT11=
EXTT12=
PLAYORDER=
